<svg width="203" height="40" viewBox="0 0 203 40" fill="none" xmlns="http://www.w3.org/2000/svg">
<g clip-path="url(#clip0_959_809)">
<path d="M80.4509 29.6227L73.8068 21.9188C78.3817 21.2999 80.4287 19.2615 80.4287 15.3632C80.4287 12.9739 79.6441 11.2768 78.0305 10.1698C76.417 9.06288 73.8669 8.50781 70.2854 8.50781H63.0401C59.37 8.50781 57.7343 9.71684 57.7343 12.4284V29.744C57.7343 30.6723 58.0159 31.1444 59.5662 31.1444H60.0376C61.5847 31.1444 61.8695 30.6723 61.8695 29.744V12.8367C61.8695 12.0169 62.2049 11.4714 63.8374 11.4714H70.2727C75.3349 11.4714 76.2841 12.8399 76.2841 15.36C76.2841 17.7972 75.3033 19.2104 70.2727 19.2104H64.8182C64.5729 19.2104 64.3376 19.3085 64.1638 19.4831C63.9901 19.6576 63.892 19.8946 63.8912 20.1419V21.2425C63.8912 21.4904 63.9889 21.7281 64.1627 21.9034C64.3366 22.0787 64.5724 22.1772 64.8182 22.1772H69.2698L75.9139 29.9322C76.746 30.8892 77.3629 31.1412 78.9101 31.1412H79.4258C80.2484 31.1412 80.7863 31.0678 80.9413 30.7073C81.0963 30.3469 80.7894 29.9768 80.4509 29.6195" fill="black"/>
<path d="M101.038 15.3003C99.3645 14.12 96.9251 13.5234 93.7613 13.5234C87.0286 13.5234 83.6147 16.0244 83.6147 20.9562V24.124C83.6147 29.228 87.0317 31.4898 94.6883 31.4898C96.8664 31.51 99.0401 31.2907 101.171 30.8358C102.494 30.5519 102.816 30.2648 102.816 29.3748V29.0558C102.834 28.8738 102.811 28.6902 102.749 28.5182C102.688 28.3461 102.59 28.1898 102.462 28.0605C102.171 27.8244 101.728 27.7861 101.029 27.9329C98.9463 28.3613 96.8262 28.575 94.7009 28.5709C89.6008 28.5709 87.6139 27.4225 87.6139 24.4813V20.2066C87.6139 20.1364 87.6139 20.0662 87.6139 19.9992C87.7151 17.5014 89.7115 16.286 93.7107 16.286C97.8237 16.286 99.8106 17.562 99.8106 20.2066V21.0902H90.5468C90.4252 21.0902 90.3048 21.1144 90.1925 21.1614C90.0802 21.2085 89.9782 21.2774 89.8924 21.3642C89.8066 21.451 89.7386 21.5541 89.6923 21.6675C89.6461 21.7808 89.6225 21.9023 89.6229 22.0249V22.7841C89.6225 22.9067 89.6461 23.0282 89.6923 23.1416C89.7386 23.255 89.8066 23.358 89.8924 23.4449C89.9782 23.5317 90.0802 23.6006 90.1925 23.6476C90.3048 23.6946 90.4252 23.7188 90.5468 23.7188H101.541C102.807 23.7188 103.291 23.5274 103.465 22.4715C103.574 21.8472 103.623 21.2137 103.61 20.5798C103.61 18.2798 102.747 16.5029 101.038 15.3003Z" fill="black"/>
<path d="M125.862 8.51172H125.346C124.039 8.51172 123.606 8.70631 123.606 9.84196V24.0919C123.606 25.7763 123.176 26.8385 122.208 27.5308C121.239 28.223 119.572 28.5899 117.082 28.5899C112.264 28.5899 110.558 27.4127 110.558 24.0919V20.921C110.558 19.2367 110.989 18.1744 111.957 17.4821C112.925 16.7899 114.589 16.423 117.082 16.423C118.215 16.401 119.346 16.508 120.455 16.742C120.59 16.7739 120.731 16.7744 120.866 16.7435C121.002 16.7125 121.129 16.651 121.237 16.5634C121.346 16.4759 121.433 16.3646 121.492 16.2381C121.552 16.1115 121.582 15.973 121.581 15.8329V14.9811C121.581 14.7804 121.517 14.5849 121.399 14.4236C121.28 14.2622 121.113 14.1435 120.923 14.0847C119.49 13.6835 118.006 13.4964 116.519 13.5297C109.913 13.5297 106.562 16.0307 106.562 20.9625V24.1334C106.562 29.0843 110.005 31.496 117.082 31.496C124.062 31.496 127.602 29.0173 127.602 24.1334V9.84516C127.602 8.7095 127.064 8.5149 125.862 8.5149" fill="black"/>
<path d="M149.157 19.46C152.113 18.7135 153.331 17.262 153.331 14.5473C153.331 12.5152 152.483 10.9872 150.8 9.99828C149.116 9.00937 146.566 8.51172 143.032 8.51172H137.318C133.645 8.51172 132.009 9.72074 132.009 12.4323V27.2277C132.009 29.9393 133.645 31.1483 137.318 31.1483H143.798C150.942 31.1483 154.27 29.1099 154.27 24.7395C154.27 21.7791 152.688 20.1331 149.157 19.46ZM143.235 28.1816H138.116C136.48 28.1816 136.148 27.636 136.148 26.8194V12.8438C136.148 12.024 136.464 11.4785 138.116 11.4785H143.045C148.107 11.4785 149.148 12.8023 149.148 14.7865C149.148 17.2142 147.436 18.1584 143.045 18.1584H139.09C138.845 18.1593 138.61 18.2581 138.437 18.4333C138.263 18.6085 138.166 18.8458 138.166 19.0931V20.0501C138.166 20.2972 138.264 20.5341 138.437 20.7088C138.61 20.8835 138.845 20.9816 139.09 20.9816H143.795C148.379 20.9816 150.085 21.9641 150.085 24.5959C150.085 26.8609 148.961 28.1752 143.232 28.1752" fill="black"/>
<path d="M175.86 15.3577C174.136 14.1232 171.545 13.5234 167.932 13.5234C160.917 13.5234 157.364 16.0117 157.364 20.9212V24.0921C157.364 26.609 158.203 28.4305 159.937 29.6555C161.67 30.8805 164.29 31.4898 167.932 31.4898C174.892 31.4898 178.404 28.9984 178.404 24.0921V20.9212C178.404 18.401 177.572 16.5795 175.873 15.3577M174.421 24.0921C174.421 27.4129 172.725 28.59 167.944 28.59C162.471 28.59 161.373 26.8674 161.373 24.0921V20.9212C161.373 17.6003 163.091 16.4232 167.944 16.4232C172.725 16.4232 174.421 17.6003 174.421 20.9212V24.0921Z" fill="black"/>
<path d="M202.529 29.6987L197.833 24.1735C196.793 22.9262 196.252 22.3456 195.571 22.0075C196.236 21.6885 196.774 21.1302 197.833 19.8127L201.589 15.3116C201.956 14.8713 202.155 14.5364 202.019 14.2461C201.883 13.9558 201.409 13.8633 200.608 13.8633H200.045C198.615 13.8633 197.979 14.1312 197.327 15.0085L193.66 19.5097C192.92 20.4667 192.562 20.6134 191.876 20.6134C191.189 20.6134 190.832 20.4539 190.085 19.5065L186.431 15.0149C185.773 14.1312 185.134 13.8633 183.707 13.8633H183.14C182.343 13.8633 181.875 13.9239 181.733 14.2461C181.59 14.5683 181.796 14.8841 182.163 15.3147L185.915 19.8095C187.013 21.1557 187.519 21.7236 188.184 22.0426C187.733 22.2998 187.321 22.6222 186.962 22.9996L185.969 24.1671L181.223 29.6955C180.856 30.1357 180.657 30.4675 180.793 30.761C180.929 31.0544 181.404 31.1438 182.204 31.1438H182.767C184.213 31.1438 184.779 30.9077 185.532 30.0017L190.028 24.5531C190.977 23.4589 191.234 23.3409 191.87 23.3409C192.506 23.3409 192.768 23.4589 193.705 24.5499L198.213 30.0049C198.963 30.9109 199.532 31.147 200.978 31.147H201.542C202.342 31.147 202.807 31.0863 202.953 30.7641C203.098 30.442 202.886 30.1261 202.522 29.6987" fill="black"/>
<path d="M21.1475 0H18.8632C6.31214 0 -0.00610352 1.94273 -0.00610352 20.0016C-0.00610352 38.6985 7.45113 40 20.0022 40C32.5532 40 39.963 39.1865 39.963 20.0016C39.963 0.685855 33.6353 0 21.1412 0" fill="#ED3012"/>
<path d="M32.0659 23.0955C31.9846 23.5335 31.7611 23.9317 31.4306 24.2274C31.1001 24.5232 30.6813 24.6996 30.2403 24.7288C26.6968 24.9649 22.916 25.0957 18.9232 25.0701C15.6897 25.051 12.5954 24.9298 9.65937 24.7352C9.19559 24.7039 8.75713 24.5106 8.41935 24.1887C8.08157 23.8667 7.86558 23.4362 7.80851 22.9711C7.67917 21.9384 7.61577 20.8985 7.61869 19.8576C7.62171 18.8796 7.68404 17.9027 7.80534 16.9323C7.86374 16.4639 8.08432 16.0314 8.42815 15.711C8.77199 15.3906 9.21699 15.2029 9.68468 15.181C12.7874 15.0236 16.0209 14.9385 19.3851 14.9258C23.1501 14.9258 26.7632 15.0119 30.2119 15.1842C30.6621 15.2079 31.0912 15.3843 31.4295 15.6849C31.7677 15.9854 31.9954 16.3924 32.0754 16.8398C32.2518 17.8211 32.345 18.8157 32.3538 19.8129C32.3623 20.9139 32.2658 22.0131 32.0659 23.0955Z" stroke="white" stroke-width="1.09219" stroke-miterlimit="10"/>
<path d="M28.5413 19.8698C28.5413 20.0774 28.4802 20.2803 28.3659 20.4529C28.2515 20.6255 28.0889 20.76 27.8987 20.8395C27.7085 20.9189 27.4992 20.9397 27.2973 20.8992C27.0954 20.8587 26.9099 20.7587 26.7643 20.612C26.6188 20.4652 26.5196 20.2782 26.4795 20.0746C26.4393 19.871 26.4599 19.66 26.5387 19.4682C26.6175 19.2764 26.7509 19.1125 26.9221 18.9972C27.0933 18.8819 27.2945 18.8203 27.5004 18.8203C27.7764 18.8203 28.0412 18.9309 28.2364 19.1277C28.4316 19.3245 28.5413 19.5915 28.5413 19.8698Z" fill="white"/>
<path d="M28.5413 19.8698C28.5413 20.0774 28.4802 20.2803 28.3659 20.4529C28.2515 20.6255 28.0889 20.76 27.8987 20.8395C27.7085 20.9189 27.4992 20.9397 27.2973 20.8992C27.0954 20.8587 26.9099 20.7587 26.7643 20.612C26.6188 20.4652 26.5196 20.2782 26.4795 20.0746C26.4393 19.871 26.4599 19.66 26.5387 19.4682C26.6175 19.2764 26.7509 19.1125 26.9221 18.9972C27.0933 18.8819 27.2945 18.8203 27.5004 18.8203C27.7764 18.8203 28.0412 18.9309 28.2364 19.1277C28.4316 19.3245 28.5413 19.5915 28.5413 19.8698Z" stroke="white" stroke-width="1.03078" stroke-miterlimit="10"/>
</g>
<defs>
<clipPath id="clip0_959_809">
<rect width="203" height="40" fill="white"/>
</clipPath>
</defs>
</svg>
